<svg xmlns="http://www.w3.org/2000/svg" width="7" height="13" viewBox="0 0 7 13">
  <metadata><?xpacket begin="﻿" id="W5M0MpCehiHzreSzNTczkc9d"?>
<x:xmpmeta xmlns:x="adobe:ns:meta/" x:xmptk="Adobe XMP Core 5.6-c138 79.159824, 2016/09/14-01:09:01        ">
   <rdf:RDF xmlns:rdf="http://www.w3.org/1999/02/22-rdf-syntax-ns#">
      <rdf:Description rdf:about=""/>
   </rdf:RDF>
</x:xmpmeta>
                                                                                                    
                                                                                                    
                                                                                                    
                                                                                                    
                                                                                                    
                                                                                                    
                                                                                                    
                                                                                                    
                                                                                                    
                                                                                                    
                                                                                                    
                                                                                                    
                                                                                                    
                                                                                                    
                                                                                                    
                                                                                                    
                                                                                                    
                                                                                                    
                                                                                                    
                                                                                                    
                           
<?xpacket end="w"?></metadata>
<defs>
    <style>
      .cls-1 {
        fill: #6a64de;
        fill-rule: evenodd;
      }
    </style>
  </defs>
  <path id="Shape_9_copy_3" data-name="Shape 9 copy 3" class="cls-1" d="M167.523,1335.38l4.392-4.96-4.671-4.83h0a0.979,0.979,0,0,1-.256-0.64,0.9,0.9,0,0,1,.838-0.95,0.839,0.839,0,0,1,.6.25h0l5.28,5.47h0a0.952,0.952,0,0,1,.278.66h0a0.974,0.974,0,0,1-.248.68h0l-5.029,5.67h0a0.856,0.856,0,0,1-.588.27,0.9,0.9,0,0,1-.88-0.91A0.952,0.952,0,0,1,167.523,1335.38Z" transform="translate(-167 -1324)"/>
</svg>
