<svg xmlns="http://www.w3.org/2000/svg" width="32" height="31.969" viewBox="0 0 32 31.969">
  <path class="cls-1" d="M893.4,678.149c-0.7-.688-1.4-1.351-2.062-2.045a1.2,1.2,0,0,1,0-1.7c0.062-.071.131-0.136,0.2-0.2q7.7-7.7,15.4-15.394a0.345,0.345,0,0,1,.153-0.121c0.221,0.176.443,0.349,0.661,0.527a0.626,0.626,0,1,0,.88-0.891c-0.171-.213-0.331-0.434-0.5-0.652-0.039.029-.079,0.056-0.119,0.085,0.058-.067.114-0.138,0.177-0.2q1.53-1.535,3.065-3.066a1.255,1.255,0,0,1,2-.014q0.936,0.93,1.863,1.869a0.411,0.411,0,0,1,.041.078,3.805,3.805,0,0,0-.809,3.014,3.713,3.713,0,0,0,1.072,2.086,3.754,3.754,0,0,0,2.525,1.118,3.824,3.824,0,0,0,2.551-.833c0.75,0.725,1.5,1.41,2.2,2.144a1.172,1.172,0,0,1-.1,1.648c-0.411.433-.842,0.846-1.264,1.269l-2.071,2.074c-0.174-.168-0.332-0.331-0.5-0.482a0.633,0.633,0,0,0-.926-0.018,0.64,0.64,0,0,0,.039.9c0.144,0.165.3,0.323,0.462,0.5-0.057.061-.132,0.145-0.211,0.224q-7.674,7.675-15.352,15.35a1.292,1.292,0,0,1-2.132,0q-0.91-.91-1.818-1.823a0.386,0.386,0,0,1-.041-0.069,3.812,3.812,0,0,0,.854-3.039,3.748,3.748,0,0,0-1.1-2.139C897.151,677,895.409,676.925,893.4,678.149Zm16.507-18.315a0.6,0.6,0,0,0-.58.864,2.359,2.359,0,0,0,.714.727,0.6,0.6,0,0,0,.879-0.582A1.511,1.511,0,0,0,909.909,659.834Zm3.121,3.151a1.373,1.373,0,0,0-1.074-1.036,0.6,0.6,0,0,0-.5.906,2.53,2.53,0,0,0,.657.66A0.608,0.608,0,0,0,913.03,662.985Zm1.049,1.056a0.6,0.6,0,0,0-.536.892,2.469,2.469,0,0,0,.675.684,0.6,0.6,0,0,0,.9-0.507A1.377,1.377,0,0,0,914.079,664.041Zm3.154,3.146a1.443,1.443,0,0,0-1.045-1.039,0.6,0.6,0,0,0-.531.911,2.466,2.466,0,0,0,.657.659A0.613,0.613,0,0,0,917.233,667.187Z" transform="translate(-891 -654)"/>
</svg>
