<svg xmlns="http://www.w3.org/2000/svg" width="28" height="28" viewBox="0 0 28 28">
  <path class="cls-1" d="M528.188,563.784c0.369-.437.741-0.871,1.1-1.314,0.223-.27.195-0.368-0.124-0.493-1.648-.644-3.294-1.292-4.947-1.929-0.239-.092-0.259-0.2-0.1-0.372,0.338-.365.663-0.744,1.028-1.08a0.762,0.762,0,0,1,.527-0.158c1.755,0.149,3.508.315,5.259,0.484a0.6,0.6,0,0,0,.6-0.266c0.769-.974,1.523-1.97,2.375-2.869,1.45-1.529,2.971-2.99,4.461-4.482,0.094-.095.174-0.2,0.3-0.351-0.588-.229-1.126-0.441-1.665-0.647q-3.812-1.457-7.621-2.909c-0.827-.316-1.652-0.634-2.479-0.948-0.364-.137-0.388-0.24-0.112-0.517,0.682-.679,1.369-1.353,2.041-2.042a0.75,0.75,0,0,1,.726-0.231c1.983,0.319,3.971.616,5.952,0.947a0.963,0.963,0,0,0,.97-0.317c0.63-.669,1.289-1.31,1.945-1.954a1.2,1.2,0,1,1,1.711,1.69c-0.313.328-.635,0.648-0.952,0.972a0.4,0.4,0,0,0-.03.1,0.94,0.94,0,0,0,.237.108c1.4,0.218,2.8.424,4.194,0.651a0.655,0.655,0,0,0,.622-0.244c1.348-1.342,2.679-2.7,4.064-4.006a6.014,6.014,0,0,1,2.694-1.553,0.8,0.8,0,0,1,.895.182,0.86,0.86,0,0,1,.1.859,6.266,6.266,0,0,1-1.548,2.662c-1.268,1.357-2.6,2.66-3.918,3.969a0.938,0.938,0,0,0-.314.937c0.237,1.316.427,2.641,0.64,3.962a0.277,0.277,0,0,0,.121.2,0.313,0.313,0,0,0,.208-0.11c0.3-.293.59-0.6,0.9-0.885a1.186,1.186,0,0,1,1.945,1.253,1.268,1.268,0,0,1-.3.45c-0.688.7-1.381,1.4-2.086,2.087a0.682,0.682,0,0,0-.222.662c0.334,2.077.649,4.159,0.981,6.237a0.593,0.593,0,0,1-.192.575c-0.727.71-1.442,1.433-2.16,2.151-0.23.23-.326,0.208-0.446-0.106q-1.841-4.84-3.682-9.68c-0.238-.625-0.488-1.245-0.719-1.872-0.078-.212-0.175-0.228-0.324-0.081-0.231.227-.459,0.458-0.688,0.687-1.109,1.108-2.223,2.211-3.325,3.325a28.721,28.721,0,0,1-3.554,3.015,0.573,0.573,0,0,0-.187.438c0.149,1.776.315,3.549,0.487,5.322a0.652,0.652,0,0,1-.234.627c-0.351.3-.677,0.636-1.008,0.962-0.177.175-.281,0.148-0.371-0.085q-0.944-2.444-1.9-4.885c-0.164-.421-0.284-0.451-0.621-0.15-0.4.357-.8,0.72-1.2,1.08Z" transform="translate(-524.031 -540)"/>
</svg>
