<svg xmlns="http://www.w3.org/2000/svg" width="33" height="30" viewBox="0 0 33 30">
  <path class="cls-1" d="M414.576,652.111a0.58,0.58,0,0,0-.543-0.055l-4.208,1.733a0.581,0.581,0,0,0,0,1.073l4.208,1.733a0.587,0.587,0,0,0,.22.044,0.582,0.582,0,0,0,.58-0.581v-3.466A0.577,0.577,0,0,0,414.576,652.111ZM407.53,654.2a0.58,0.58,0,0,0-.543-0.055l-4.208,1.733a0.58,0.58,0,0,0,0,1.072l4.208,1.733a0.561,0.561,0,0,0,.22.044,0.578,0.578,0,0,0,.579-0.579v-3.467A0.579,0.579,0,0,0,407.53,654.2Zm20.439,19.187a1.242,1.242,0,0,0-.336-0.672c-0.038-.038-3.789-3.872-6.682-7.009a70.3,70.3,0,0,1-5.663-7.467,1.231,1.231,0,0,0-1.026-.559h-0.007a1.236,1.236,0,0,0-1.026.548c-0.023.033-1.518,2.261-3.3,4.605-1.1-1.506-1.875-2.7-1.89-2.72a0.927,0.927,0,0,0-.77-0.42h0a0.926,0.926,0,0,0-.77.412,76.492,76.492,0,0,1-5.589,7.342c-2.622,2.845-5.611,5.8-5.641,5.834a0.927,0.927,0,0,0-.276.66l0,8.048h8l0-7.314h5.853v7.314h2.47v-7.314h5.874v7.314h2.47v-7.314h5.853l0,7.314H428v-8.345A1.28,1.28,0,0,0,427.969,673.389ZM410.317,672.2h-5.448c1.174-1.2,2.653-2.733,4.043-4.239a65.561,65.561,0,0,0,4.518-5.706A42.481,42.481,0,0,1,410.317,672.2Zm7.877,0a42.514,42.514,0,0,1-3.108-9.906,56.734,56.734,0,0,0,4.051,5.088c1.5,1.626,3.226,3.437,4.555,4.818h-5.5Z" transform="translate(-395 -652)"/>
</svg>
