<svg xmlns="http://www.w3.org/2000/svg" width="26" height="27" viewBox="0 0 26 27">
<defs>
    <style>
      .cls-1 {
        fill: #fff;
        fill-rule: evenodd;
      }
    </style>
  </defs>
  <path class="cls-1" d="M265.756,545.137l-12.568-6.1a0.43,0.43,0,0,0-.377,0l-4.579,2.221v-1.394a0.434,0.434,0,0,0-.434-0.435h-1.733a0.434,0.434,0,0,0-.433.435v2.655l-5.389,2.615a0.436,0.436,0,0,0,.189.828h1.3v17.477a1.307,1.307,0,0,0-.867,1.267V566h24.269v-1.291a1.308,1.308,0,0,0-.867-1.267V545.965h1.3a0.433,0.433,0,0,0,.422-0.338A0.438,0.438,0,0,0,265.756,545.137Zm-7.99,2.135H262.1v4.355h-4.334v-4.355Zm0,5.662H262.1v4.355h-4.334v-4.355Zm-6.934-5.662h4.334v4.355h-4.334v-4.355Zm0,5.662h4.334v4.355h-4.334v-4.355Zm-6.934-5.662h4.334v4.355H243.9v-4.355Zm0,5.662h4.334v4.355H243.9v-4.355Zm6.934,6.125h4.334v4.355h-4.334v-4.355Z" transform="translate(-240 -539)"/>
</svg>
